<svg height="512" viewBox="0 0 64 64" width="512" xmlns="http://www.w3.org/2000/svg"><g id="Flat"><g id="Color_copy" data-name="Color copy"><g><path d="m22 44h-7a1 1 0 0 1 0-2h7a1 1 0 0 1 0 2z" fill="#fcbc04"/><path d="m22 48h-5a1 1 0 0 1 0-2h5a1 1 0 0 1 0 2z" fill="#fcbc04"/><path d="m22 52h-3a1 1 0 0 1 0-2h3a1 1 0 0 1 0 2z" fill="#fcbc04"/><g><path d="m39 29h-16v-14h12l4 6z" fill="#f9e109"/><path d="m39 21h-10v-6h6z" fill="#aae1f9"/><path d="m31 24a5 5 0 0 1 -5-5v-4h-3v14h16v-5z" fill="#fcbc04"/><path d="m3 11h20v18h-20z" fill="#f89c8d"/><path d="m17 25a10 10 0 0 1 -10-10v-4h-4v18h20v-14l-1.216 6.078a4.879 4.879 0 0 1 -4.784 3.922z" fill="#f8664f"/><path d="m19 22-12 1v-2h12z" fill="#f8664f"/><circle cx="13" cy="29" fill="#656b76" r="4"/><circle cx="31" cy="29" fill="#656b76" r="4"/><circle cx="13" cy="29" fill="#d0d8da" r="2"/><circle cx="31" cy="29" fill="#d0d8da" r="2"/><path d="m7 7h12v14h-12z" fill="#f9e109"/><path d="m18 18a8 8 0 0 1 -8-8v-3h-3v14h12v-3z" fill="#fcbc04"/><path d="m36 19a6 6 0 0 1 -5.651-4h-1.349v6h10l-1.333-2z" fill="#57b7eb"/><path d="m15 10a1 1 0 0 1 -1-1v-3a1 1 0 0 0 -2 0v3a1 1 0 0 1 -2 0v-3a3 3 0 0 1 6 0v3a1 1 0 0 1 -1 1z" fill="#f8664f"/><path d="m15 17h-4a1 1 0 0 1 0-2h4a1 1 0 0 1 0 2z" fill="#f8664f"/><path d="m11 17h3.13a8.038 8.038 0 0 1 -2.37-2h-.76a1 1 0 0 0 0 2z" fill="#cc5144"/></g><path d="m53 41a8 8 0 0 0 -8 8c0 7 8 12 8 12s8-5 8-12a8 8 0 0 0 -8-8zm0 10a3 3 0 1 1 3-3 3 3 0 0 1 -3 3z" fill="#f89c8d"/><path d="m21 42h10v10h-10z" fill="#fcbc04"/><path d="m23.5 42h-2.5v10h10v-2.5a7.5 7.5 0 0 1 -7.5-7.5z" fill="#e59730"/><path d="m49 46a7.954 7.954 0 0 1 1.443-4.575 8 8 0 0 0 -5.443 7.575c0 7 8 12 8 12a22.92 22.92 0 0 0 3.776-3.148c-1.251-.84-7.776-5.521-7.776-11.852z" fill="#f8664f"/><circle cx="13" cy="29" fill="#656b76" r="1"/><circle cx="31" cy="29" fill="#656b76" r="1"/><g fill="#f8664f"><path d="m35.89 55a1 1 0 0 1 1-1 1 1 0 0 1 1 1 1 1 0 0 1 -1 1 1 1 0 0 1 -1-1z"/><path d="m39.89 55a1 1 0 0 1 1-1 1 1 0 0 1 1 1 1 1 0 0 1 -1 1 1 1 0 0 1 -1-1z"/><path d="m31.83 55a.994.994 0 0 1 .99-1 1 1 0 0 1 1.01 1 1 1 0 0 1 -1.01 1 .994.994 0 0 1 -.99-1z"/><path d="m27.76 55a1 1 0 0 1 1-1 1 1 0 0 1 1 1 1 1 0 0 1 -1 1 1 1 0 0 1 -1-1z"/><path d="m23.7 55a1 1 0 0 1 1-1 1 1 0 0 1 1 1 1 1 0 0 1 -1 1 1 1 0 0 1 -1-1z"/><path d="m19.64 55a1 1 0 0 1 1-1 1 1 0 0 1 1 1 1 1 0 0 1 -1 1 1 1 0 0 1 -1-1z"/><path d="m15.57 55a1 1 0 0 1 1-1 1 1 0 0 1 1 1 1 1 0 0 1 -1 1 1 1 0 0 1 -1-1z"/><path d="m11.51 55a1 1 0 0 1 1-1 1 1 0 0 1 1 1 1 1 0 0 1 -1 1 1 1 0 0 1 -1-1z"/><path d="m8.16 55.229a.984.984 0 0 1 -.54-1.3.985.985 0 0 1 1.3-.54 1 1 0 0 1 .54 1.31 1 1 0 0 1 -.92.61.827.827 0 0 1 -.38-.08z"/><path d="m4.52 52.63h-.01a1.008 1.008 0 0 1 .09-1.41 1 1 0 0 1 1.41.08 1.009 1.009 0 0 1 -.08 1.42 1 1 0 0 1 -.67.25.991.991 0 0 1 -.74-.34z"/><path d="m2.37 48.7a1 1 0 0 1 .69-1.23 1.007 1.007 0 0 1 1.24.69 1.021 1.021 0 0 1 -.7 1.24 1.184 1.184 0 0 1 -.27.031 1 1 0 0 1 -.96-.731z"/><path d="m2.96 45.39a.988.988 0 0 1 -.8-1.161.987.987 0 0 1 1.16-.8.988.988 0 0 1 .8 1.16v-.01a.989.989 0 0 1 -.98.83 1.224 1.224 0 0 1 -.18-.019z"/><path d="m4.13 41.52a1.007 1.007 0 0 1 -.22-1.4 1 1 0 0 1 1.4-.221 1 1 0 0 1 .22 1.4 1.028 1.028 0 0 1 -.81.41 1.086 1.086 0 0 1 -.59-.189z"/><path d="m6.88 38.53a.989.989 0 0 1 .4-1.35h.01a1 1 0 0 1 1.35.41.992.992 0 0 1 -.41 1.349.985.985 0 0 1 -.47.121.988.988 0 0 1 -.88-.53z"/><path d="m10.64 37.05a1 1 0 0 1 .97-1.04 1 1 0 0 1 1.03.96 1 1 0 0 1 -.96 1.04h-.04a1.008 1.008 0 0 1 -1-.96z"/><path d="m51.27 37a1 1 0 0 1 1-1 1 1 0 0 1 1 1 1 1 0 0 1 -1 1 1 1 0 0 1 -1-1z"/><path d="m47.21 37a1 1 0 0 1 1-1 1 1 0 0 1 1 1 1 1 0 0 1 -1 1 1 1 0 0 1 -1-1z"/><path d="m43.15 37a1 1 0 0 1 1-1 1 1 0 0 1 1 1 1 1 0 0 1 -1 1 1 1 0 0 1 -1-1z"/><path d="m39.09 37a.994.994 0 0 1 .99-1 1 1 0 0 1 1 1 1 1 0 0 1 -1 1 .994.994 0 0 1 -.99-1z"/><path d="m35.02 37a1 1 0 0 1 1-1 1 1 0 0 1 1 1 1 1 0 0 1 -1 1 1 1 0 0 1 -1-1z"/><path d="m30.96 37a1 1 0 0 1 1-1 1 1 0 0 1 1 1 1 1 0 0 1 -1 1 1 1 0 0 1 -1-1z"/><path d="m26.9 37a1 1 0 0 1 1-1 1 1 0 0 1 1 1 1 1 0 0 1 -1 1 1 1 0 0 1 -1-1z"/><path d="m22.83 37a1 1 0 0 1 1-1 1 1 0 0 1 1 1 1 1 0 0 1 -1 1 1 1 0 0 1 -1-1z"/><path d="m18.77 37a1 1 0 0 1 1-1 1 1 0 0 1 1 1 1 1 0 0 1 -1 1 1 1 0 0 1 -1-1z"/><path d="m14.71 37a1 1 0 0 1 1-1 1 1 0 0 1 1 1 1 1 0 0 1 -1 1 1 1 0 0 1 -1-1z"/><path d="m55.36 36.91a1 1 0 0 1 .44-1.341 1.013 1.013 0 0 1 1.35.441 1.009 1.009 0 0 1 -.45 1.349.976.976 0 0 1 -.45.1 1 1 0 0 1 -.89-.549z"/><path d="m58.5 34.39a1 1 0 0 1 -.67-1.241 1 1 0 0 1 1.25-.67 1 1 0 0 1 .67 1.241 1 1 0 0 1 -.96.719 1.037 1.037 0 0 1 -.29-.049z"/><path d="m57.47 30.01a1.01 1.01 0 0 1 .37-1.37 1 1 0 0 1 1.36.37 1.007 1.007 0 0 1 -.36 1.37 1.009 1.009 0 0 1 -.5.13 1.006 1.006 0 0 1 -.87-.5z"/><path d="m54.94 28.109a1 1 0 0 1 -.73-1.21.992.992 0 0 1 1.2-.729.991.991 0 0 1 .74 1.2 1 1 0 0 1 -.97.77.941.941 0 0 1 -.24-.031z"/><path d="m50.13 27a1 1 0 0 1 1-1 1 1 0 0 1 1 1 1 1 0 0 1 -1 1 1 1 0 0 1 -1-1z"/><path d="m46.06 27a1 1 0 0 1 1-1 1 1 0 0 1 1 1 1 1 0 0 1 -1 1 1 1 0 0 1 -1-1z"/><path d="m42.06 27a1 1 0 0 1 1-1 1 1 0 0 1 1 1 1 1 0 0 1 -1 1 1 1 0 0 1 -1-1z"/></g><path d="m25 42h2v3h-2z" fill="#f9e109"/></g></g></g></svg>